<svg width="16" height="17" viewBox="0 0 16 17" fill="none" xmlns="http://www.w3.org/2000/svg">
<path d="M12.6667 9.16683C12.2987 9.16683 12.0001 9.4655 12.0001 9.8335V11.1668H3.6094L4.4714 10.3048C4.73206 10.0442 4.73206 9.62283 4.4714 9.36217C4.21073 9.1015 3.7894 9.1015 3.52873 9.36217L1.52873 11.3622C1.4674 11.4235 1.41873 11.4975 1.38473 11.5788C1.3174 11.7422 1.3174 11.9255 1.38473 12.0882C1.41873 12.1695 1.4674 12.2435 1.52873 12.3048L3.52873 14.3048C3.65873 14.4348 3.8294 14.5002 4.00006 14.5002C4.17073 14.5002 4.3414 14.4348 4.4714 14.3048C4.73206 14.0442 4.73206 13.6228 4.4714 13.3622L3.6094 12.5002H12.6667C13.0347 12.5002 13.3334 12.2015 13.3334 11.8335V9.8335C13.3334 9.4655 13.0347 9.16683 12.6667 9.16683Z" fill="white"/>
<path d="M14.6154 4.91217C14.5814 4.83083 14.5327 4.75683 14.4714 4.6955L12.4714 2.6955C12.2107 2.43483 11.7894 2.43483 11.5287 2.6955C11.2681 2.95617 11.2681 3.3775 11.5287 3.63817L12.3907 4.50017H3.3334C2.9654 4.50017 2.66673 4.79883 2.66673 5.16683V7.16683C2.66673 7.53483 2.9654 7.8335 3.3334 7.8335C3.7014 7.8335 4.00006 7.53483 4.00006 7.16683V5.8335H12.3907L11.5287 6.6955C11.2681 6.95617 11.2681 7.3775 11.5287 7.63817C11.6587 7.76817 11.8294 7.8335 12.0001 7.8335C12.1707 7.8335 12.3414 7.76817 12.4714 7.63817L14.4714 5.63817C14.5327 5.57683 14.5814 5.50283 14.6154 5.4215C14.6827 5.25883 14.6827 5.07483 14.6154 4.91217Z" fill="white"/>
</svg>
