<svg width="24" height="19" viewBox="0 0 24 19" fill="none" xmlns="http://www.w3.org/2000/svg">
<g id="Group">
<path id="Vector" d="M20.317 2.15557C18.7873 1.45369 17.147 0.936576 15.4319 0.640403C15.4007 0.634687 15.3695 0.648971 15.3534 0.677541C15.1424 1.05276 14.9087 1.54225 14.7451 1.927C12.9004 1.65083 11.0652 1.65083 9.25832 1.927C9.09465 1.5337 8.85248 1.05276 8.64057 0.677541C8.62449 0.649924 8.59328 0.63564 8.56205 0.640403C6.84791 0.93563 5.20756 1.45275 3.67693 2.15557C3.66368 2.16129 3.65233 2.17082 3.64479 2.18319C0.533392 6.83155 -0.31895 11.3657 0.0991801 15.8436C0.101072 15.8655 0.11337 15.8864 0.130398 15.8997C2.18321 17.4073 4.17171 18.3225 6.12328 18.9291C6.15451 18.9386 6.18761 18.9272 6.20748 18.9015C6.66913 18.2711 7.08064 17.6063 7.43348 16.9073C7.4543 16.8664 7.43442 16.8178 7.39186 16.8016C6.73913 16.554 6.1176 16.2521 5.51973 15.9093C5.47244 15.8816 5.46865 15.814 5.51216 15.7816C5.63797 15.6873 5.76382 15.5893 5.88396 15.4902C5.90569 15.4721 5.93598 15.4683 5.96153 15.4797C9.88928 17.273 14.1415 17.273 18.023 15.4797C18.0485 15.4674 18.0788 15.4712 18.1015 15.4893C18.2216 15.5883 18.3475 15.6873 18.4742 15.7816C18.5177 15.814 18.5149 15.8816 18.4676 15.9093C17.8697 16.2588 17.2482 16.554 16.5945 16.8006C16.552 16.8168 16.533 16.8664 16.5538 16.9073C16.9143 17.6054 17.3258 18.2701 17.7789 18.9005C17.7978 18.9272 17.8319 18.9386 17.8631 18.9291C19.8241 18.3225 21.8126 17.4073 23.8654 15.8997C23.8834 15.8864 23.8948 15.8664 23.8967 15.8445C24.3971 10.6676 23.0585 6.17064 20.3482 2.18414C20.3416 2.17082 20.3303 2.16129 20.317 2.15557ZM8.02002 13.117C6.8375 13.117 5.86313 12.0313 5.86313 10.6981C5.86313 9.36477 6.8186 8.27912 8.02002 8.27912C9.23087 8.27912 10.1958 9.3743 10.1769 10.6981C10.1769 12.0313 9.22141 13.117 8.02002 13.117ZM15.9947 13.117C14.8123 13.117 13.8379 12.0313 13.8379 10.6981C13.8379 9.36477 14.7933 8.27912 15.9947 8.27912C17.2056 8.27912 18.1705 9.3743 18.1516 10.6981C18.1516 12.0313 17.2056 13.117 15.9947 13.117Z" fill="#5865F2"/>
</g>
</svg>
