<svg width="24" height="24" viewBox="0 0 24 24" fill="none" xmlns="http://www.w3.org/2000/svg">
<path d="M13.141 6.38192L2.454 16.8907C2.063 17.2751 2.063 17.8966 2.454 18.2811L5.282 21.0619C5.477 21.2537 5.733 21.35 5.989 21.35C6.245 21.35 6.501 21.2537 6.696 21.0619L17.383 10.5532L13.141 6.38192Z" fill="white"/>
<path d="M21.546 6.4596C21.937 6.07513 21.937 5.45367 21.546 5.06919L18.718 2.28836C18.327 1.90388 17.695 1.90388 17.304 2.28836L14.555 4.99151L18.797 9.16275L21.546 6.4596Z" fill="white"/>
<path d="M18 18.0667H17V17.0834C17 16.5396 16.553 16.1001 16 16.1001C15.447 16.1001 15 16.5396 15 17.0834V18.0667H14C13.447 18.0667 13 18.5063 13 19.05C13 19.5938 13.447 20.0334 14 20.0334H15V21.0167C15 21.5605 15.447 22 16 22C16.553 22 17 21.5605 17 21.0167V20.0334H18C18.553 20.0334 19 19.5938 19 19.05C19 18.5063 18.553 18.0667 18 18.0667Z" fill="white"/>
<path d="M3 10.2002H4V11.1835C4 11.7273 4.447 12.1668 5 12.1668C5.553 12.1668 6 11.7273 6 11.1835V10.2002H7C7.553 10.2002 8 9.76061 8 9.21683C8 8.67306 7.553 8.23351 7 8.23351H6V7.25019C6 6.70642 5.553 6.26687 5 6.26687C4.447 6.26687 4 6.70642 4 7.25019V8.23351H3C2.447 8.23351 2 8.67306 2 9.21683C2 9.76061 2.447 10.2002 3 10.2002Z" fill="white"/>
<path d="M19 13.1501H17V15.1168H19V13.1501Z" fill="white"/>
<path d="M13 2.33359H11V4.30023H13V2.33359Z" fill="white"/>
<path d="M10 4.30023H8V6.26687H10V4.30023Z" fill="white"/>
<path d="M7 2.33359H5V4.30023H7V2.33359Z" fill="white"/>
<path d="M22 10.2002H20V12.1668H22V10.2002Z" fill="white"/>
<path d="M22 15.1168H20V17.0834H22V15.1168Z" fill="white"/>
</svg>
