<svg width="30" height="30" viewBox="0 0 30 30" fill="none" xmlns="http://www.w3.org/2000/svg">
<path d="M25 8.75H22.5V15C22.5 16.3261 21.9732 17.5979 21.0355 18.5355C20.0979 19.4732 18.8261 20 17.5 20H13.75L11.0575 22.0187C11.4749 22.3285 11.9802 22.4971 12.5 22.5H17.0837L21.75 26C21.9664 26.1623 22.2295 26.25 22.5 26.25C22.8315 26.25 23.1495 26.1183 23.3839 25.8839C23.6183 25.6495 23.75 25.3315 23.75 25V22.5H25C25.663 22.5 26.2989 22.2366 26.7678 21.7678C27.2366 21.2989 27.5 20.663 27.5 20V11.25C27.5 10.587 27.2366 9.95107 26.7678 9.48223C26.2989 9.01339 25.663 8.75 25 8.75Z" fill="#E74694"/>
<path d="M25 8.75H22.5V15C22.5 16.3261 21.9732 17.5979 21.0355 18.5355C20.0979 19.4732 18.8261 20 17.5 20H13.75L11.0575 22.0187C11.4749 22.3285 11.9802 22.4971 12.5 22.5H17.0837L21.75 26C21.9664 26.1623 22.2295 26.25 22.5 26.25C22.8315 26.25 23.1495 26.1183 23.3839 25.8839C23.6183 25.6495 23.75 25.3315 23.75 25V22.5H25C25.663 22.5 26.2989 22.2366 26.7678 21.7678C27.2366 21.2989 27.5 20.663 27.5 20V11.25C27.5 10.587 27.2366 9.95107 26.7678 9.48223C26.2989 9.01339 25.663 8.75 25 8.75Z" fill="url(#paint0_linear_5_11124)"/>
<path d="M17.5 3.75H5C4.33696 3.75 3.70107 4.01339 3.23223 4.48223C2.76339 4.95107 2.5 5.58696 2.5 6.25V15C2.5 15.663 2.76339 16.2989 3.23223 16.7678C3.70107 17.2366 4.33696 17.5 5 17.5H6.25V20C6.25 20.2321 6.31464 20.4597 6.43669 20.6572C6.55873 20.8546 6.73335 21.0142 6.94098 21.118C7.14861 21.2218 7.38105 21.2658 7.61226 21.2449C7.84346 21.2241 8.06429 21.1393 8.25 21L12.9163 17.5H17.5C18.163 17.5 18.7989 17.2366 19.2678 16.7678C19.7366 16.2989 20 15.663 20 15V6.25C20 5.58696 19.7366 4.95107 19.2678 4.48223C18.7989 4.01339 18.163 3.75 17.5 3.75Z" fill="#E74694"/>
<path d="M17.5 3.75H5C4.33696 3.75 3.70107 4.01339 3.23223 4.48223C2.76339 4.95107 2.5 5.58696 2.5 6.25V15C2.5 15.663 2.76339 16.2989 3.23223 16.7678C3.70107 17.2366 4.33696 17.5 5 17.5H6.25V20C6.25 20.2321 6.31464 20.4597 6.43669 20.6572C6.55873 20.8546 6.73335 21.0142 6.94098 21.118C7.14861 21.2218 7.38105 21.2658 7.61226 21.2449C7.84346 21.2241 8.06429 21.1393 8.25 21L12.9163 17.5H17.5C18.163 17.5 18.7989 17.2366 19.2678 16.7678C19.7366 16.2989 20 15.663 20 15V6.25C20 5.58696 19.7366 4.95107 19.2678 4.48223C18.7989 4.01339 18.163 3.75 17.5 3.75Z" fill="url(#paint1_linear_5_11124)"/>
<defs>
<linearGradient id="paint0_linear_5_11124" x1="2.5" y1="3.98936" x2="30.9738" y2="9.98108" gradientUnits="userSpaceOnUse">
<stop offset="0.192708" stop-color="#E74694"/>
<stop offset="1" stop-color="#FFCD83"/>
</linearGradient>
<linearGradient id="paint1_linear_5_11124" x1="2.5" y1="3.98936" x2="30.9738" y2="9.98108" gradientUnits="userSpaceOnUse">
<stop offset="0.192708" stop-color="#E74694"/>
<stop offset="1" stop-color="#FFCD83"/>
</linearGradient>
</defs>
</svg>
