<svg width="28" height="32" viewBox="0 0 28 32" fill="none" xmlns="http://www.w3.org/2000/svg">
<path d="M13.1792 0.623382C13.5619 0.27106 14.1509 0.27106 14.5337 0.623381L19.806 5.4764C19.8603 5.52636 19.9249 5.56369 19.9953 5.58572L26.8343 7.72518C27.3308 7.8805 27.6253 8.39056 27.5116 8.8982L25.9449 15.8907C25.9288 15.9627 25.9288 16.0373 25.9449 16.1093L27.5116 23.1018C27.6253 23.6094 27.3308 24.1195 26.8343 24.2748L19.9953 26.4143C19.9249 26.4363 19.8603 26.4736 19.806 26.5236L14.5337 31.3766C14.1509 31.7289 13.5619 31.7289 13.1792 31.3766L7.90683 26.5236C7.85255 26.4736 7.7879 26.4363 7.71749 26.4143L0.878487 24.2748C0.381986 24.1195 0.0875048 23.6094 0.201243 23.1018L1.76791 16.1093C1.78404 16.0373 1.78404 15.9627 1.76791 15.8907L0.201243 8.8982C0.087505 8.39056 0.381985 7.8805 0.878486 7.72518L7.71749 5.58572C7.7879 5.56369 7.85255 5.52636 7.90683 5.4764L13.1792 0.623382Z" fill="url(#paint0_linear_5_9048)"/>
<path d="M13.1792 0.623382C13.5619 0.27106 14.1509 0.27106 14.5337 0.623381L19.806 5.4764C19.8603 5.52636 19.9249 5.56369 19.9953 5.58572L26.8343 7.72518C27.3308 7.8805 27.6253 8.39056 27.5116 8.8982L25.9449 15.8907C25.9288 15.9627 25.9288 16.0373 25.9449 16.1093L27.5116 23.1018C27.6253 23.6094 27.3308 24.1195 26.8343 24.2748L19.9953 26.4143C19.9249 26.4363 19.8603 26.4736 19.806 26.5236L14.5337 31.3766C14.1509 31.7289 13.5619 31.7289 13.1792 31.3766L7.90683 26.5236C7.85255 26.4736 7.7879 26.4363 7.71749 26.4143L0.878487 24.2748C0.381986 24.1195 0.0875048 23.6094 0.201243 23.1018L1.76791 16.1093C1.78404 16.0373 1.78404 15.9627 1.76791 15.8907L0.201243 8.8982C0.087505 8.39056 0.381985 7.8805 0.878486 7.72518L7.71749 5.58572C7.7879 5.56369 7.85255 5.52636 7.90683 5.4764L13.1792 0.623382Z" fill="url(#paint1_linear_5_9048)"/>
<defs>
<linearGradient id="paint0_linear_5_9048" x1="29.8564" y1="32" x2="-2.14363" y2="-2.21302e-07" gradientUnits="userSpaceOnUse">
<stop stop-color="#FFEEAF"/>
<stop offset="1" stop-color="#FFCA00"/>
</linearGradient>
<linearGradient id="paint1_linear_5_9048" x1="5.80715e-08" y1="0.340425" x2="32.0978" y2="5.60489" gradientUnits="userSpaceOnUse">
<stop offset="0.192708" stop-color="#E74694"/>
<stop offset="1" stop-color="#FFCD83"/>
</linearGradient>
</defs>
</svg>
